<svg xmlns="http://www.w3.org/2000/svg" xmlns:xlink="http://www.w3.org/1999/xlink" width="330" zoomAndPan="magnify" viewBox="0 0 247.5 112.499997" height="150" preserveAspectRatio="xMidYMid meet" version="1.0"><defs><g/><clipPath id="285961ed72"><path d="M 15 0 L 97 0 L 97 112 L 15 112 Z M 15 0 " clip-rule="nonzero"/></clipPath><clipPath id="ba6f35a694"><path d="M -15.023438 25.199219 L 63.957031 -12.542969 L 108.476562 80.617188 L 29.492188 118.359375 Z M -15.023438 25.199219 " clip-rule="nonzero"/></clipPath><clipPath id="5f9b967747"><path d="M -15.023438 25.199219 L 63.957031 -12.542969 L 108.476562 80.617188 L 29.492188 118.359375 Z M -15.023438 25.199219 " clip-rule="nonzero"/></clipPath><clipPath id="3006f1478e"><path d="M -15.023438 25.199219 L 63.957031 -12.542969 L 108.476562 80.617188 L 29.492188 118.359375 Z M -15.023438 25.199219 " clip-rule="nonzero"/></clipPath><clipPath id="a199b124c3"><path d="M 39 46 L 60 46 L 60 67 L 39 67 Z M 39 46 " clip-rule="nonzero"/></clipPath><clipPath id="1771b906f7"><path d="M -15.023438 25.199219 L 63.957031 -12.542969 L 108.476562 80.617188 L 29.492188 118.359375 Z M -15.023438 25.199219 " clip-rule="nonzero"/></clipPath><clipPath id="ead080598b"><path d="M -15.023438 25.199219 L 63.957031 -12.542969 L 108.476562 80.617188 L 29.492188 118.359375 Z M -15.023438 25.199219 " clip-rule="nonzero"/></clipPath><clipPath id="d37e8494de"><path d="M -15.023438 25.199219 L 63.957031 -12.542969 L 108.476562 80.617188 L 29.492188 118.359375 Z M -15.023438 25.199219 " clip-rule="nonzero"/></clipPath><clipPath id="c5469fc113"><path d="M 45 70 L 50 70 L 50 75 L 45 75 Z M 45 70 " clip-rule="nonzero"/></clipPath><clipPath id="8132fbdd1f"><path d="M -15.023438 25.199219 L 63.957031 -12.542969 L 108.476562 80.617188 L 29.492188 118.359375 Z M -15.023438 25.199219 " clip-rule="nonzero"/></clipPath><clipPath id="de467c9de1"><path d="M -15.023438 25.199219 L 63.957031 -12.542969 L 108.476562 80.617188 L 29.492188 118.359375 Z M -15.023438 25.199219 " clip-rule="nonzero"/></clipPath><clipPath id="be34d6ba31"><path d="M -15.023438 25.199219 L 63.957031 -12.542969 L 108.476562 80.617188 L 29.492188 118.359375 Z M -15.023438 25.199219 " clip-rule="nonzero"/></clipPath><clipPath id="630b9ee595"><path d="M 62 53 L 67 53 L 67 57 L 62 57 Z M 62 53 " clip-rule="nonzero"/></clipPath><clipPath id="2b41321740"><path d="M -15.023438 25.199219 L 63.957031 -12.542969 L 108.476562 80.617188 L 29.492188 118.359375 Z M -15.023438 25.199219 " clip-rule="nonzero"/></clipPath><clipPath id="1d84be8519"><path d="M -15.023438 25.199219 L 63.957031 -12.542969 L 108.476562 80.617188 L 29.492188 118.359375 Z M -15.023438 25.199219 " clip-rule="nonzero"/></clipPath><clipPath id="d33be6eea2"><path d="M -15.023438 25.199219 L 63.957031 -12.542969 L 108.476562 80.617188 L 29.492188 118.359375 Z M -15.023438 25.199219 " clip-rule="nonzero"/></clipPath></defs><g clip-path="url(#285961ed72)"><g clip-path="url(#ba6f35a694)"><g clip-path="url(#5f9b967747)"><g clip-path="url(#3006f1478e)"><path fill="#db756b" d="M 37.171875 79.191406 C 35.917969 77.617188 36.039062 75.339844 37.476562 73.929688 L 42.035156 69.378906 L 39.726562 67.078125 C 34.332031 61.6875 34.335938 52.902344 39.742188 47.507812 C 45.152344 42.113281 53.945312 42.101562 59.339844 47.496094 L 61.648438 49.796875 L 66.207031 45.246094 C 67.636719 43.816406 69.910156 43.695312 71.476562 44.945312 L 96.59375 64.914062 L 79.582031 20.476562 C 78.59375 17.898438 75.824219 16.476562 73.15625 17.15625 L 64.640625 19.359375 L 63.523438 15.042969 C 60.90625 4.917969 50.554688 -1.179688 40.40625 1.429688 C 30.265625 4.058594 24.144531 14.402344 26.742188 24.535156 L 27.859375 28.855469 L 19.34375 31.058594 C 16.660156 31.75 14.925781 34.335938 15.308594 37.070312 L 25.011719 106.542969 C 25.472656 109.859375 28.734375 112.03125 31.988281 111.203125 L 57.433594 104.640625 Z M 66.667969 27.195312 C 67 28.488281 66.21875 29.804688 64.925781 30.136719 C 63.632812 30.46875 62.316406 29.691406 61.984375 28.402344 C 61.65625 27.109375 62.433594 25.792969 63.726562 25.460938 C 65.003906 25.136719 66.335938 25.90625 66.667969 27.195312 Z M 31.46875 23.332031 C 29.542969 15.800781 34.085938 8.09375 41.640625 6.128906 C 49.195312 4.167969 56.894531 8.722656 58.847656 16.265625 L 59.964844 20.585938 L 32.585938 27.652344 Z M 31.648438 33.742188 C 32.941406 33.410156 34.257812 34.1875 34.589844 35.476562 C 34.921875 36.769531 34.140625 38.085938 32.847656 38.417969 C 31.554688 38.75 30.238281 37.972656 29.90625 36.683594 C 29.558594 35.398438 30.335938 34.082031 31.648438 33.742188 Z M 31.648438 33.742188 " fill-opacity="1" fill-rule="nonzero"/></g></g></g></g><g clip-path="url(#a199b124c3)"><g clip-path="url(#1771b906f7)"><g clip-path="url(#ead080598b)"><g clip-path="url(#d37e8494de)"><path fill="#db756b" d="M 56.835938 49.988281 C 52.828125 45.976562 46.269531 45.96875 42.234375 50.003906 C 38.210938 54.015625 38.195312 60.566406 42.230469 64.585938 L 44.539062 66.886719 L 59.152344 52.308594 Z M 56.835938 49.988281 " fill-opacity="1" fill-rule="nonzero"/></g></g></g></g><g clip-path="url(#c5469fc113)"><g clip-path="url(#8132fbdd1f)"><g clip-path="url(#de467c9de1)"><g clip-path="url(#be34d6ba31)"><path fill="#db756b" d="M 46.210938 71.074219 C 45.523438 71.753906 45.511719 72.878906 46.214844 73.574219 C 46.894531 74.257812 48.023438 74.269531 48.71875 73.5625 C 49.40625 72.882812 49.417969 71.757812 48.710938 71.0625 C 48.03125 70.378906 46.90625 70.367188 46.210938 71.074219 Z M 46.210938 71.074219 " fill-opacity="1" fill-rule="nonzero"/></g></g></g></g><g clip-path="url(#630b9ee595)"><g clip-path="url(#2b41321740)"><g clip-path="url(#1d84be8519)"><g clip-path="url(#d33be6eea2)"><path fill="#db756b" d="M 65.828125 56.472656 C 66.515625 55.792969 66.527344 54.667969 65.824219 53.972656 C 65.144531 53.285156 64.015625 53.277344 63.320312 53.984375 C 62.625 54.6875 62.621094 55.789062 63.328125 56.484375 C 64.023438 57.160156 65.152344 57.167969 65.828125 56.472656 Z M 65.828125 56.472656 " fill-opacity="1" fill-rule="nonzero"/></g></g></g></g><g fill="#db756b" fill-opacity="0.1412"><g transform="translate(59.736989, 103.304486)"><g><path d="M 10.265625 -34.140625 L 10.265625 -6.828125 L 22.015625 -6.828125 L 22.015625 0 L 2.484375 0 L 2.484375 -34.140625 Z M 10.265625 -34.140625 "/></g></g></g><g fill="#db756b" fill-opacity="0.1412"><g transform="translate(83.116044, 103.304486)"><g><path d="M 19.828125 -34.140625 L 33.609375 0 L 25.25 0 L 22.71875 -6.828125 L 9.734375 -6.828125 L 7.203125 0 L -1.15625 0 L 12.625 -34.140625 Z M 20.078125 -13.65625 L 16.265625 -23.59375 L 16.1875 -23.59375 L 12.375 -13.65625 Z M 20.078125 -13.65625 "/></g></g></g><g fill="#db756b" fill-opacity="0.1412"><g transform="translate(115.55707, 103.304486)"><g><path d="M 33.5625 0 L 22.84375 0 L 10.265625 -14.484375 L 10.265625 0 L 2.484375 0 L 2.484375 -34.140625 L 10.265625 -34.140625 L 10.265625 -20.203125 L 21.984375 -34.140625 L 31.421875 -34.140625 L 17.671875 -17.96875 Z M 33.5625 0 "/></g></g></g><g fill="#db756b" fill-opacity="0.1412"><g transform="translate(148.122231, 103.304486)"><g><path d="M 28.71875 -34.140625 L 28.71875 -12.125 C 28.71875 -7.9375 27.585938 -4.765625 25.328125 -2.609375 C 23.066406 -0.453125 19.753906 0.625 15.390625 0.625 C 11.035156 0.625 7.722656 -0.453125 5.453125 -2.609375 C 3.191406 -4.765625 2.0625 -7.9375 2.0625 -12.125 L 2.0625 -34.140625 L 9.84375 -34.140625 L 9.84375 -14.40625 C 9.84375 -11.644531 10.273438 -9.722656 11.140625 -8.640625 C 12.015625 -7.566406 13.429688 -7.03125 15.390625 -7.03125 C 17.359375 -7.03125 18.773438 -7.566406 19.640625 -8.640625 C 20.503906 -9.722656 20.9375 -11.644531 20.9375 -14.40625 L 20.9375 -34.140625 Z M 28.71875 -34.140625 "/></g></g></g><g fill="#db756b" fill-opacity="0.1412"><g transform="translate(178.908103, 103.304486)"><g><path d="M 2.484375 -34.140625 L 13.078125 -34.140625 C 16.273438 -34.140625 18.828125 -33.457031 20.734375 -32.09375 C 22.640625 -30.726562 23.59375 -28.515625 23.59375 -25.453125 C 23.59375 -22.035156 22.171875 -19.59375 19.328125 -18.125 C 24.179688 -17.269531 26.609375 -14.398438 26.609375 -9.515625 C 26.609375 -6.648438 25.613281 -4.347656 23.625 -2.609375 C 21.644531 -0.867188 18.914062 0 15.4375 0 L 2.484375 0 Z M 10.265625 -20.78125 L 10.890625 -20.78125 C 12.628906 -20.78125 13.925781 -21.082031 14.78125 -21.6875 C 15.632812 -22.289062 16.0625 -23.285156 16.0625 -24.671875 C 16.0625 -26.984375 14.335938 -28.140625 10.890625 -28.140625 L 10.265625 -28.140625 Z M 10.265625 -6 L 12.703125 -6 C 16.515625 -6 18.421875 -7.269531 18.421875 -9.8125 C 18.421875 -11.332031 17.941406 -12.421875 16.984375 -13.078125 C 16.035156 -13.742188 14.609375 -14.078125 12.703125 -14.078125 L 10.265625 -14.078125 Z M 10.265625 -6 "/></g></g></g><g fill="#db756b" fill-opacity="0.1412"><g transform="translate(206.466423, 103.304486)"><g><path d="M 0.953125 -17.09375 C 0.953125 -22.03125 2.632812 -26.207031 6 -29.625 C 9.363281 -33.050781 13.421875 -34.765625 18.171875 -34.765625 C 22.941406 -34.765625 26.992188 -33.0625 30.328125 -29.65625 C 33.671875 -26.25 35.34375 -22.0625 35.34375 -17.09375 C 35.34375 -12.101562 33.703125 -7.898438 30.421875 -4.484375 C 27.140625 -1.078125 23.054688 0.625 18.171875 0.625 C 13.171875 0.625 9.050781 -1.0625 5.8125 -4.4375 C 2.570312 -7.820312 0.953125 -12.039062 0.953125 -17.09375 Z M 9.359375 -17.09375 C 9.359375 -15.300781 9.632812 -13.664062 10.1875 -12.1875 C 10.738281 -10.707031 11.703125 -9.457031 13.078125 -8.4375 C 14.460938 -7.414062 16.160156 -6.90625 18.171875 -6.90625 C 21.066406 -6.90625 23.253906 -7.898438 24.734375 -9.890625 C 26.210938 -11.878906 26.953125 -14.28125 26.953125 -17.09375 C 26.953125 -19.882812 26.195312 -22.28125 24.6875 -24.28125 C 23.1875 -26.28125 21.015625 -27.28125 18.171875 -27.28125 C 15.359375 -27.28125 13.1875 -26.28125 11.65625 -24.28125 C 10.125 -22.28125 9.359375 -19.882812 9.359375 -17.09375 Z M 9.359375 -17.09375 "/></g></g></g><g fill="#db756b" fill-opacity="1"><g transform="translate(57.907703, 101.475198)"><g><path d="M 10.265625 -34.140625 L 10.265625 -6.828125 L 22.015625 -6.828125 L 22.015625 0 L 2.484375 0 L 2.484375 -34.140625 Z M 10.265625 -34.140625 "/></g></g></g><g fill="#db756b" fill-opacity="1"><g transform="translate(81.286758, 101.475198)"><g><path d="M 19.828125 -34.140625 L 33.609375 0 L 25.25 0 L 22.71875 -6.828125 L 9.734375 -6.828125 L 7.203125 0 L -1.15625 0 L 12.625 -34.140625 Z M 20.078125 -13.65625 L 16.265625 -23.59375 L 16.1875 -23.59375 L 12.375 -13.65625 Z M 20.078125 -13.65625 "/></g></g></g><g fill="#db756b" fill-opacity="1"><g transform="translate(113.727784, 101.475198)"><g><path d="M 33.5625 0 L 22.84375 0 L 10.265625 -14.484375 L 10.265625 0 L 2.484375 0 L 2.484375 -34.140625 L 10.265625 -34.140625 L 10.265625 -20.203125 L 21.984375 -34.140625 L 31.421875 -34.140625 L 17.671875 -17.96875 Z M 33.5625 0 "/></g></g></g><g fill="#db756b" fill-opacity="1"><g transform="translate(146.292945, 101.475198)"><g><path d="M 28.71875 -34.140625 L 28.71875 -12.125 C 28.71875 -7.9375 27.585938 -4.765625 25.328125 -2.609375 C 23.066406 -0.453125 19.753906 0.625 15.390625 0.625 C 11.035156 0.625 7.722656 -0.453125 5.453125 -2.609375 C 3.191406 -4.765625 2.0625 -7.9375 2.0625 -12.125 L 2.0625 -34.140625 L 9.84375 -34.140625 L 9.84375 -14.40625 C 9.84375 -11.644531 10.273438 -9.722656 11.140625 -8.640625 C 12.015625 -7.566406 13.429688 -7.03125 15.390625 -7.03125 C 17.359375 -7.03125 18.773438 -7.566406 19.640625 -8.640625 C 20.503906 -9.722656 20.9375 -11.644531 20.9375 -14.40625 L 20.9375 -34.140625 Z M 28.71875 -34.140625 "/></g></g></g><g fill="#db756b" fill-opacity="1"><g transform="translate(177.078818, 101.475198)"><g><path d="M 2.484375 -34.140625 L 13.078125 -34.140625 C 16.273438 -34.140625 18.828125 -33.457031 20.734375 -32.09375 C 22.640625 -30.726562 23.59375 -28.515625 23.59375 -25.453125 C 23.59375 -22.035156 22.171875 -19.59375 19.328125 -18.125 C 24.179688 -17.269531 26.609375 -14.398438 26.609375 -9.515625 C 26.609375 -6.648438 25.613281 -4.347656 23.625 -2.609375 C 21.644531 -0.867188 18.914062 0 15.4375 0 L 2.484375 0 Z M 10.265625 -20.78125 L 10.890625 -20.78125 C 12.628906 -20.78125 13.925781 -21.082031 14.78125 -21.6875 C 15.632812 -22.289062 16.0625 -23.285156 16.0625 -24.671875 C 16.0625 -26.984375 14.335938 -28.140625 10.890625 -28.140625 L 10.265625 -28.140625 Z M 10.265625 -6 L 12.703125 -6 C 16.515625 -6 18.421875 -7.269531 18.421875 -9.8125 C 18.421875 -11.332031 17.941406 -12.421875 16.984375 -13.078125 C 16.035156 -13.742188 14.609375 -14.078125 12.703125 -14.078125 L 10.265625 -14.078125 Z M 10.265625 -6 "/></g></g></g><g fill="#db756b" fill-opacity="1"><g transform="translate(204.637137, 101.475198)"><g><path d="M 0.953125 -17.09375 C 0.953125 -22.03125 2.632812 -26.207031 6 -29.625 C 9.363281 -33.050781 13.421875 -34.765625 18.171875 -34.765625 C 22.941406 -34.765625 26.992188 -33.0625 30.328125 -29.65625 C 33.671875 -26.25 35.34375 -22.0625 35.34375 -17.09375 C 35.34375 -12.101562 33.703125 -7.898438 30.421875 -4.484375 C 27.140625 -1.078125 23.054688 0.625 18.171875 0.625 C 13.171875 0.625 9.050781 -1.0625 5.8125 -4.4375 C 2.570312 -7.820312 0.953125 -12.039062 0.953125 -17.09375 Z M 9.359375 -17.09375 C 9.359375 -15.300781 9.632812 -13.664062 10.1875 -12.1875 C 10.738281 -10.707031 11.703125 -9.457031 13.078125 -8.4375 C 14.460938 -7.414062 16.160156 -6.90625 18.171875 -6.90625 C 21.066406 -6.90625 23.253906 -7.898438 24.734375 -9.890625 C 26.210938 -11.878906 26.953125 -14.28125 26.953125 -17.09375 C 26.953125 -19.882812 26.195312 -22.28125 24.6875 -24.28125 C 23.1875 -26.28125 21.015625 -27.28125 18.171875 -27.28125 C 15.359375 -27.28125 13.1875 -26.28125 11.65625 -24.28125 C 10.125 -22.28125 9.359375 -19.882812 9.359375 -17.09375 Z M 9.359375 -17.09375 "/></g></g></g></svg>