<svg xmlns="http://www.w3.org/2000/svg" xmlns:xlink="http://www.w3.org/1999/xlink" width="400" zoomAndPan="magnify" viewBox="0 0 300 119.999999" height="160" preserveAspectRatio="xMidYMid meet" version="1.0"><defs><g/><clipPath id="72d7d04a9f"><path d="M 144 16 L 160 16 L 160 26 L 144 26 Z M 144 16 " clip-rule="nonzero"/></clipPath><clipPath id="98596d0233"><path d="M 100.089844 -5.292969 L 187.570312 -9.875 L 192.152344 77.605469 L 104.671875 82.1875 Z M 100.089844 -5.292969 " clip-rule="nonzero"/></clipPath><clipPath id="ddc187bdcc"><path d="M 100.089844 -5.292969 L 187.570312 -9.875 L 192.152344 77.605469 L 104.671875 82.1875 Z M 100.089844 -5.292969 " clip-rule="nonzero"/></clipPath><clipPath id="67c2cbaf0a"><path d="M 158 25 L 170 25 L 170 47 L 158 47 Z M 158 25 " clip-rule="nonzero"/></clipPath><clipPath id="17676c9f4b"><path d="M 100.089844 -5.292969 L 187.570312 -9.875 L 192.152344 77.605469 L 104.671875 82.1875 Z M 100.089844 -5.292969 " clip-rule="nonzero"/></clipPath><clipPath id="3c3f44f1df"><path d="M 100.089844 -5.292969 L 187.570312 -9.875 L 192.152344 77.605469 L 104.671875 82.1875 Z M 100.089844 -5.292969 " clip-rule="nonzero"/></clipPath><clipPath id="e2993a44ca"><path d="M 138 30 L 161 30 L 161 47 L 138 47 Z M 138 30 " clip-rule="nonzero"/></clipPath><clipPath id="c622e41884"><path d="M 100.089844 -5.292969 L 187.570312 -9.875 L 192.152344 77.605469 L 104.671875 82.1875 Z M 100.089844 -5.292969 " clip-rule="nonzero"/></clipPath><clipPath id="e7c2324e6d"><path d="M 100.089844 -5.292969 L 187.570312 -9.875 L 192.152344 77.605469 L 104.671875 82.1875 Z M 100.089844 -5.292969 " clip-rule="nonzero"/></clipPath></defs><rect x="-30" width="360" fill="#ffffff" y="-12" height="143.999998" fill-opacity="1"/><rect x="-30" width="360" fill="#ffffff" y="-12" height="143.999998" fill-opacity="1"/><rect x="-30" width="360" fill="#ffffff" y="-12" height="143.999998" fill-opacity="1"/><path stroke-linecap="round" transform="matrix(0.0876, 0, 0, 0.0876, 145.750321, 36.56755)" fill="none" stroke-linejoin="round" d="M -244.18891 28.169023 C -244.18891 28.169023 -244.18891 -126.431094 -244.18891 -126.431094 C -244.18891 -243.752382 -149.074388 -338.822313 -31.797691 -338.822313 C -31.797691 -338.822313 125.522532 -338.822313 125.522532 -338.822313 C 242.799228 -338.822313 337.913751 -243.752382 337.913751 -126.431094 C 337.913751 -126.431094 337.913751 28.169023 337.913751 28.169023 C 337.913751 145.44572 242.799228 240.51565 125.522532 240.51565 C 125.522532 240.51565 -31.797691 240.51565 -31.797691 240.51565 C -149.074388 240.51565 -244.18891 145.44572 -244.18891 28.169023 Z M -244.18891 28.169023 " stroke="#e84f40" stroke-width="8" stroke-opacity="1" stroke-miterlimit="4"/><path stroke-linecap="round" transform="matrix(0.0876, 0, 0, 0.0876, 144.961928, 36.56755)" fill="none" stroke-linejoin="round" d="M -93.788077 -169.105542 C -112.338308 -160.543897 -133.118133 -157.467056 -153.630407 -157.377872 C -174.142681 -157.288688 -194.521179 -160.14257 -214.810493 -162.996452 " stroke="#e84f40" stroke-width="8" stroke-opacity="1" stroke-miterlimit="4"/><path stroke-linecap="round" transform="matrix(0.0876, 0, 0, 0.0876, 145.399916, 37.26835)" fill="none" stroke-linejoin="round" d="M -57.897168 55.352037 C -79.167505 67.258074 -95.978651 86.16504 -108.063056 107.3016 C -120.147461 128.482753 -127.772675 151.938092 -133.480439 175.616391 " stroke="#e84f40" stroke-width="8" stroke-opacity="1" stroke-miterlimit="4"/><path stroke-linecap="round" transform="matrix(0.0874799, -0.00458463, 0.00458463, 0.0874799, 146.120809, 36.156537)" fill="none" stroke-linejoin="round" d="M -44.12876 -127.523253 C -64.789848 -133.741161 -79.355582 -153.169513 -85.547573 -173.900487 C -91.786427 -194.589264 -91.034327 -216.608477 -90.214169 -238.222247 C -51.978179 -234.208994 -17.884683 -203.978207 -9.310104 -166.511415 C -8.003383 -160.771989 -7.259036 -154.526199 -9.859356 -149.214799 " stroke="#e84f40" stroke-width="8" stroke-opacity="1" stroke-miterlimit="4"/><g clip-path="url(#72d7d04a9f)"><g clip-path="url(#98596d0233)"><g clip-path="url(#ddc187bdcc)"><path stroke-linecap="round" transform="matrix(0.0874799, -0.00458463, 0.00458463, 0.0874799, 146.120809, 36.156533)" fill="none" stroke-linejoin="round" d="M -8.131306 -198.37656 C 18.532606 -210.419745 51.391533 -219.682343 70.329734 -214.671056 C 92.525874 -208.774577 142.007912 -168.851344 154.988833 -120.035005 " stroke="#e84f40" stroke-width="8" stroke-opacity="1" stroke-miterlimit="4"/></g></g></g><g clip-path="url(#67c2cbaf0a)"><g clip-path="url(#17676c9f4b)"><g clip-path="url(#3c3f44f1df)"><path stroke-linecap="round" transform="matrix(0.0874799, -0.00458463, 0.00458463, 0.0874799, 146.120809, 36.156533)" fill="none" stroke-linejoin="round" d="M 156.611748 -115.216723 C 166.055939 -77.302479 185.825915 -20.851886 243.243262 6.537821 C 292.249214 55.545335 196.489043 133.536863 162.838777 125.521894 " stroke="#e84f40" stroke-width="8" stroke-opacity="1" stroke-miterlimit="4"/></g></g></g><g clip-path="url(#e2993a44ca)"><g clip-path="url(#c622e41884)"><g clip-path="url(#e7c2324e6d)"><path stroke-linecap="round" transform="matrix(0.0874799, -0.00458463, 0.00458463, 0.0874799, 146.120809, 36.156529)" fill="none" stroke-linejoin="round" d="M -55.581367 -59.804136 C -72.074157 -50.130356 -91.791261 -6.198017 -79.081439 14.56197 C -42.804164 73.84241 -26.639364 54.238454 29.161753 64.753893 C 91.41769 76.500677 158.612639 123.514331 158.612639 123.514331 " stroke="#e84f40" stroke-width="8" stroke-opacity="1" stroke-miterlimit="4"/></g></g></g><path stroke-linecap="round" transform="matrix(0.0874799, -0.00458463, 0.00458463, 0.0874799, 146.120809, 36.156537)" fill="none" stroke-linejoin="round" d="M 68.547326 -83.529058 C 76.517201 -88.201827 84.648863 -92.553546 92.986843 -96.581881 C 96.192681 -98.110688 99.534445 -99.677024 103.117912 -99.8911 C 108.271626 -100.246149 113.322843 -97.793424 116.832198 -94.037259 C 120.341552 -90.281094 122.358243 -85.308216 123.207798 -80.217893 C 124.200469 -74.450273 123.644088 -68.094039 119.970172 -63.598005 C 115.869808 -58.633137 104.032187 -56.842253 100.788124 -69.068604 C 97.351745 -81.885523 105.067113 -92.778411 110.255643 -94.64984 " stroke="#e84f40" stroke-width="8" stroke-opacity="1" stroke-miterlimit="4"/><path stroke-linecap="round" transform="matrix(0.0874799, -0.00458463, 0.00458463, 0.0874799, 145.909652, 35.930057)" fill="none" stroke-linejoin="round" d="M 250.018096 54.53674 C 245.726866 44.398859 226.818308 25.18944 220.003838 40.192974 C 219.554052 41.107117 219.453511 42.173522 219.399834 43.19773 C 218.367744 60.335083 226.961936 70.162635 239.946573 83.122733 " stroke="#e84f40" stroke-width="8" stroke-opacity="1" stroke-miterlimit="4"/><g fill="#ff8686" fill-opacity="1"><g transform="translate(1.678961, 114.617971)"><g><path d="M 43.664062 -14.695312 L 20.46875 -14.695312 L 20.46875 -52.484375 L 3.464844 -52.484375 L 3.464844 0 L 43.664062 0 Z M 43.664062 -14.695312 "/></g></g></g><g fill="#ff8686" fill-opacity="1"><g transform="translate(47.027225, 114.617971)"><g><path d="M 48.179688 -41.984375 L 31.070312 -41.984375 L 31.070312 -36.214844 C 28.65625 -40.515625 24.980469 -42.824219 20.363281 -42.824219 C 8.921875 -42.824219 2.519531 -34.953125 2.519531 -20.992188 C 2.519531 -7.136719 8.921875 0.839844 20.363281 0.839844 C 24.980469 0.839844 28.65625 -1.574219 31.070312 -5.878906 L 31.070312 0 L 48.179688 0 Z M 25.296875 -12.910156 C 21.414062 -12.910156 19.3125 -15.851562 19.3125 -20.992188 C 19.3125 -26.242188 21.414062 -29.179688 25.296875 -29.179688 C 29.074219 -29.179688 31.070312 -26.242188 31.070312 -20.992188 C 31.070312 -15.851562 29.074219 -12.910156 25.296875 -12.910156 Z M 25.296875 -12.910156 "/></g></g></g><g fill="#ff8686" fill-opacity="1"><g transform="translate(97.308102, 114.617971)"><g><path d="M 3.464844 0 L 20.46875 0 L 20.46875 -9.867188 L 23.09375 -12.597656 L 31.699219 0 L 49.332031 0 L 33.0625 -23.933594 L 49.019531 -41.984375 L 32.015625 -41.984375 L 20.46875 -29.074219 L 20.46875 -52.484375 L 3.464844 -52.484375 Z M 3.464844 0 "/></g></g></g><g fill="#ff8686" fill-opacity="1"><g transform="translate(146.854324, 114.617971)"><g><path d="M 48.492188 -41.984375 L 31.382812 -41.984375 L 31.382812 -21.203125 C 30.335938 -16.164062 28.234375 -13.433594 25.296875 -13.433594 C 21.832031 -13.433594 19.839844 -17.320312 19.839844 -24.140625 L 19.839844 -41.984375 L 2.835938 -41.984375 L 2.835938 -18.265625 C 2.835938 -6.089844 8.710938 0.839844 19.105469 0.839844 C 24.773438 0.734375 28.96875 -1.890625 31.382812 -6.71875 L 31.382812 0 L 48.492188 0 Z M 48.492188 -41.984375 "/></g></g></g><g fill="#ff8686" fill-opacity="1"><g transform="translate(197.450057, 114.617971)"><g><path d="M 31.175781 -42.824219 C 26.554688 -42.824219 22.988281 -40.515625 20.46875 -36.214844 L 20.46875 -52.484375 L 3.464844 -52.484375 L 3.464844 0 L 20.46875 0 L 20.46875 -5.878906 C 22.988281 -1.574219 26.554688 0.839844 31.175781 0.839844 C 42.617188 0.839844 49.125 -7.136719 49.125 -20.992188 C 49.125 -34.953125 42.617188 -42.824219 31.175781 -42.824219 Z M 26.242188 -12.910156 C 22.566406 -12.910156 20.46875 -15.851562 20.46875 -20.992188 C 20.46875 -26.242188 22.566406 -29.179688 26.242188 -29.179688 C 30.125 -29.179688 32.328125 -26.242188 32.328125 -20.992188 C 32.328125 -15.851562 30.125 -12.910156 26.242188 -12.910156 Z M 26.242188 -12.910156 "/></g></g></g><g fill="#ff8686" fill-opacity="1"><g transform="translate(247.73094, 114.617971)"><g><path d="M 25.296875 0.839844 C 39.886719 0.839844 48.179688 -7.136719 48.179688 -20.992188 C 48.179688 -34.953125 39.886719 -42.824219 25.296875 -42.824219 C 10.707031 -42.824219 2.519531 -34.953125 2.519531 -20.992188 C 2.519531 -7.136719 10.707031 0.839844 25.296875 0.839844 Z M 25.296875 -12.910156 C 21.414062 -12.910156 19.3125 -15.851562 19.3125 -20.992188 C 19.3125 -26.242188 21.414062 -29.179688 25.296875 -29.179688 C 29.179688 -29.179688 31.382812 -26.242188 31.382812 -20.992188 C 31.382812 -15.851562 29.179688 -12.910156 25.296875 -12.910156 Z M 25.296875 -12.910156 "/></g></g></g></svg>