<svg xmlns="http://www.w3.org/2000/svg" xmlns:xlink="http://www.w3.org/1999/xlink" width="400" zoomAndPan="magnify" viewBox="0 0 300 74.999997" height="100" preserveAspectRatio="xMidYMid meet" version="1.0"><defs><g/></defs><rect x="-30" width="360" fill="#ffffff" y="-7.5" height="89.999996" fill-opacity="1"/><rect x="-30" width="360" fill="#ffffff" y="-7.5" height="89.999996" fill-opacity="1"/><rect x="-30" width="360" fill="#ffffff" y="-7.5" height="89.999996" fill-opacity="1"/><g fill="#ff8686" fill-opacity="0.4"><g transform="translate(7.146573, 65.02039)"><g><path d="M 42.996094 -14.46875 L 20.15625 -14.46875 L 20.15625 -51.679688 L 3.410156 -51.679688 L 3.410156 0 L 42.996094 0 Z M 42.996094 -14.46875 "/></g></g></g><g fill="#ff8686" fill-opacity="0.4"><g transform="translate(51.80155, 65.02039)"><g><path d="M 47.441406 -41.34375 L 30.59375 -41.34375 L 30.59375 -35.660156 C 28.21875 -39.898438 24.601562 -42.171875 20.050781 -42.171875 C 8.785156 -42.171875 2.480469 -34.417969 2.480469 -20.671875 C 2.480469 -7.027344 8.785156 0.828125 20.050781 0.828125 C 24.601562 0.828125 28.21875 -1.550781 30.59375 -5.789062 L 30.59375 0 L 47.441406 0 Z M 24.910156 -12.714844 C 21.085938 -12.714844 19.019531 -15.609375 19.019531 -20.671875 C 19.019531 -25.839844 21.085938 -28.734375 24.910156 -28.734375 C 28.628906 -28.734375 30.59375 -25.839844 30.59375 -20.671875 C 30.59375 -15.609375 28.628906 -12.714844 24.910156 -12.714844 Z M 24.910156 -12.714844 "/></g></g></g><g fill="#ff8686" fill-opacity="0.4"><g transform="translate(101.31373, 65.02039)"><g><path d="M 3.410156 0 L 20.15625 0 L 20.15625 -9.714844 L 22.738281 -12.402344 L 31.214844 0 L 48.578125 0 L 32.558594 -23.566406 L 48.269531 -41.34375 L 31.523438 -41.34375 L 20.15625 -28.628906 L 20.15625 -51.679688 L 3.410156 -51.679688 Z M 3.410156 0 "/></g></g></g><g fill="#ff8686" fill-opacity="0.4"><g transform="translate(150.102486, 65.02039)"><g><path d="M 47.753906 -41.34375 L 30.90625 -41.34375 L 30.90625 -20.878906 C 29.871094 -15.917969 27.804688 -13.230469 24.910156 -13.230469 C 21.5 -13.230469 19.535156 -17.054688 19.535156 -23.773438 L 19.535156 -41.34375 L 2.789062 -41.34375 L 2.789062 -17.984375 C 2.789062 -5.996094 8.578125 0.828125 18.8125 0.828125 C 24.394531 0.722656 28.527344 -1.859375 30.90625 -6.613281 L 30.90625 0 L 47.753906 0 Z M 47.753906 -41.34375 "/></g></g></g><g fill="#ff8686" fill-opacity="0.4"><g transform="translate(199.924708, 65.02039)"><g><path d="M 30.699219 -42.171875 C 26.148438 -42.171875 22.636719 -39.898438 20.15625 -35.660156 L 20.15625 -51.679688 L 3.410156 -51.679688 L 3.410156 0 L 20.15625 0 L 20.15625 -5.789062 C 22.636719 -1.550781 26.148438 0.828125 30.699219 0.828125 C 41.964844 0.828125 48.371094 -7.027344 48.371094 -20.671875 C 48.371094 -34.417969 41.964844 -42.171875 30.699219 -42.171875 Z M 25.839844 -12.714844 C 22.222656 -12.714844 20.15625 -15.609375 20.15625 -20.671875 C 20.15625 -25.839844 22.222656 -28.734375 25.839844 -28.734375 C 29.664062 -28.734375 31.835938 -25.839844 31.835938 -20.671875 C 31.835938 -15.609375 29.664062 -12.714844 25.839844 -12.714844 Z M 25.839844 -12.714844 "/></g></g></g><g fill="#ff8686" fill-opacity="0.4"><g transform="translate(249.436894, 65.02039)"><g><path d="M 24.910156 0.828125 C 39.277344 0.828125 47.441406 -7.027344 47.441406 -20.671875 C 47.441406 -34.417969 39.277344 -42.171875 24.910156 -42.171875 C 10.542969 -42.171875 2.480469 -34.417969 2.480469 -20.671875 C 2.480469 -7.027344 10.542969 0.828125 24.910156 0.828125 Z M 24.910156 -12.714844 C 21.085938 -12.714844 19.019531 -15.609375 19.019531 -20.671875 C 19.019531 -25.839844 21.085938 -28.734375 24.910156 -28.734375 C 28.734375 -28.734375 30.90625 -25.839844 30.90625 -20.671875 C 30.90625 -15.609375 28.734375 -12.714844 24.910156 -12.714844 Z M 24.910156 -12.714844 "/></g></g></g><g fill="#ff8686" fill-opacity="1"><g transform="translate(3.948855, 61.822672)"><g><path d="M 42.996094 -14.46875 L 20.15625 -14.46875 L 20.15625 -51.679688 L 3.410156 -51.679688 L 3.410156 0 L 42.996094 0 Z M 42.996094 -14.46875 "/></g></g></g><g fill="#ff8686" fill-opacity="1"><g transform="translate(48.603832, 61.822672)"><g><path d="M 47.441406 -41.34375 L 30.59375 -41.34375 L 30.59375 -35.660156 C 28.21875 -39.898438 24.601562 -42.171875 20.050781 -42.171875 C 8.785156 -42.171875 2.480469 -34.417969 2.480469 -20.671875 C 2.480469 -7.027344 8.785156 0.828125 20.050781 0.828125 C 24.601562 0.828125 28.21875 -1.550781 30.59375 -5.789062 L 30.59375 0 L 47.441406 0 Z M 24.910156 -12.714844 C 21.085938 -12.714844 19.019531 -15.609375 19.019531 -20.671875 C 19.019531 -25.839844 21.085938 -28.734375 24.910156 -28.734375 C 28.628906 -28.734375 30.59375 -25.839844 30.59375 -20.671875 C 30.59375 -15.609375 28.628906 -12.714844 24.910156 -12.714844 Z M 24.910156 -12.714844 "/></g></g></g><g fill="#ff8686" fill-opacity="1"><g transform="translate(98.116012, 61.822672)"><g><path d="M 3.410156 0 L 20.15625 0 L 20.15625 -9.714844 L 22.738281 -12.402344 L 31.214844 0 L 48.578125 0 L 32.558594 -23.566406 L 48.269531 -41.34375 L 31.523438 -41.34375 L 20.15625 -28.628906 L 20.15625 -51.679688 L 3.410156 -51.679688 Z M 3.410156 0 "/></g></g></g><g fill="#ff8686" fill-opacity="1"><g transform="translate(146.904768, 61.822672)"><g><path d="M 47.753906 -41.34375 L 30.90625 -41.34375 L 30.90625 -20.878906 C 29.871094 -15.917969 27.804688 -13.230469 24.910156 -13.230469 C 21.5 -13.230469 19.535156 -17.054688 19.535156 -23.773438 L 19.535156 -41.34375 L 2.789062 -41.34375 L 2.789062 -17.984375 C 2.789062 -5.996094 8.578125 0.828125 18.8125 0.828125 C 24.394531 0.722656 28.527344 -1.859375 30.90625 -6.613281 L 30.90625 0 L 47.753906 0 Z M 47.753906 -41.34375 "/></g></g></g><g fill="#ff8686" fill-opacity="1"><g transform="translate(196.72699, 61.822672)"><g><path d="M 30.699219 -42.171875 C 26.148438 -42.171875 22.636719 -39.898438 20.15625 -35.660156 L 20.15625 -51.679688 L 3.410156 -51.679688 L 3.410156 0 L 20.15625 0 L 20.15625 -5.789062 C 22.636719 -1.550781 26.148438 0.828125 30.699219 0.828125 C 41.964844 0.828125 48.371094 -7.027344 48.371094 -20.671875 C 48.371094 -34.417969 41.964844 -42.171875 30.699219 -42.171875 Z M 25.839844 -12.714844 C 22.222656 -12.714844 20.15625 -15.609375 20.15625 -20.671875 C 20.15625 -25.839844 22.222656 -28.734375 25.839844 -28.734375 C 29.664062 -28.734375 31.835938 -25.839844 31.835938 -20.671875 C 31.835938 -15.609375 29.664062 -12.714844 25.839844 -12.714844 Z M 25.839844 -12.714844 "/></g></g></g><g fill="#ff8686" fill-opacity="1"><g transform="translate(246.239176, 61.822672)"><g><path d="M 24.910156 0.828125 C 39.277344 0.828125 47.441406 -7.027344 47.441406 -20.671875 C 47.441406 -34.417969 39.277344 -42.171875 24.910156 -42.171875 C 10.542969 -42.171875 2.480469 -34.417969 2.480469 -20.671875 C 2.480469 -7.027344 10.542969 0.828125 24.910156 0.828125 Z M 24.910156 -12.714844 C 21.085938 -12.714844 19.019531 -15.609375 19.019531 -20.671875 C 19.019531 -25.839844 21.085938 -28.734375 24.910156 -28.734375 C 28.734375 -28.734375 30.90625 -25.839844 30.90625 -20.671875 C 30.90625 -15.609375 28.734375 -12.714844 24.910156 -12.714844 Z M 24.910156 -12.714844 "/></g></g></g></svg>